<?xml version="1.0" standalone="no"?>
<!DOCTYPE svg PUBLIC "-//W3C//DTD SVG 20010904//EN"
 "http://www.w3.org/TR/2001/REC-SVG-20010904/DTD/svg10.dtd">
<svg version="1.0" xmlns="http://www.w3.org/2000/svg"
 width="1024.000000pt" height="1024.000000pt" viewBox="0 0 1024.000000 1024.000000"
 preserveAspectRatio="xMidYMid meet">

<g transform="translate(0.000000,1024.000000) scale(0.100000,-0.100000)"
fill="#000" stroke="none">
<path d="M6033 7329 c-95 -81 -163 -147 -163 -157 1 -21 19 -45 44 -59 34 -19
114 18 228 104 l57 44 73 -56 c69 -52 124 -83 176 -99 17 -6 29 0 52 23 17 16
30 36 30 44 0 12 -319 298 -332 297 -1 0 -76 -63 -165 -141z"/>
<path d="M2310 7439 c-831 -93 -1531 -712 -1719 -1518 -51 -219 -66 -534 -36
-751 69 -489 311 -939 673 -1252 376 -324 827 -493 1312 -492 206 0 317 14
495 59 783 200 1373 874 1481 1690 23 170 15 498 -15 647 -177 879 -874 1522
-1753 1617 -111 13 -328 12 -438 0z m500 -156 c599 -87 1124 -472 1389 -1018
87 -179 136 -334 167 -533 19 -119 24 -466 8 -494 -8 -15 -17 -13 -83 26 -223
133 -387 318 -541 611 -71 137 -97 163 -147 144 -34 -12 -111 -130 -152 -233
-36 -89 -105 -218 -139 -258 -22 -26 -38 -22 -92 17 -34 25 -58 35 -84 35 -52
0 -70 -12 -115 -78 -22 -31 -67 -84 -101 -117 -34 -33 -90 -96 -125 -140 -97
-123 -150 -167 -271 -227 l-109 -53 3 -177 2 -178 273 0 c296 0 1010 -11 1015
-16 5 -3 -24 -7 -341 -39 -263 -27 -360 -44 -380 -64 -17 -17 4 -27 80 -41 77
-13 451 -45 718 -60 110 -7 215 -15 233 -18 l34 -7 -21 -26 c-18 -24 -28 -26
-118 -32 -154 -10 -433 -41 -433 -48 0 -12 143 -29 296 -36 85 -3 154 -9 154
-13 0 -12 -203 -208 -265 -256 -136 -106 -341 -226 -354 -206 -3 5 -37 32 -74
61 -55 41 -76 51 -107 51 -46 0 -49 4 -141 174 -46 84 -77 129 -109 157 -164
141 -150 132 -196 125 -23 -3 -91 -24 -151 -47 -59 -23 -137 -50 -172 -60 -58
-17 -67 -17 -88 -4 -12 8 -27 24 -33 35 -15 28 -2 200 15 200 7 0 24 9 39 21
l26 20 0 227 c0 355 -42 886 -77 980 -12 33 -14 48 -5 67 7 16 8 33 3 48 -5
13 -7 43 -4 68 4 32 -4 83 -26 170 -37 144 -55 182 -128 279 -29 39 -53 74
-53 78 0 3 10 16 22 29 15 16 33 23 59 23 30 0 39 5 45 23 5 12 7 26 5 32 -1
5 5 14 13 21 15 10 17 70 5 113 -3 11 25 20 120 39 l124 25 -39 20 c-22 12
-124 60 -228 108 l-189 86 -219 -181 c-120 -99 -213 -182 -206 -183 7 -2 76 8
153 20 77 13 142 22 144 21 2 -2 -2 -17 -9 -34 -15 -37 -71 -76 -162 -114 -37
-16 -81 -43 -99 -60 -37 -36 -79 -120 -78 -156 1 -21 2 -20 11 9 5 19 15 43
22 52 9 14 11 4 8 -52 -3 -55 0 -77 18 -114 12 -25 25 -45 29 -45 4 0 8 23 10
51 4 90 34 139 131 214 56 43 93 63 148 79 40 13 24 -12 -32 -48 -30 -19 -62
-47 -72 -61 -9 -14 -33 -94 -54 -178 -20 -83 -47 -171 -58 -194 -34 -66 -92
-98 -235 -128 -79 -17 -132 -42 -183 -87 -36 -31 -107 -128 -100 -136 2 -2 37
1 78 7 115 16 139 7 229 -91 42 -46 100 -96 128 -113 47 -27 51 -32 51 -68 0
-41 14 -75 39 -93 13 -10 -8 -34 -129 -156 -80 -79 -190 -178 -245 -219 -78
-59 -112 -93 -156 -155 l-55 -79 105 0 c111 0 107 1 214 -63 l29 -17 44 50
c25 28 74 94 111 147 37 54 69 96 71 93 2 -2 -5 -17 -16 -32 -21 -29 -162
-295 -162 -305 0 -9 68 -34 128 -48 l54 -12 -7 -62 c-3 -33 -18 -108 -33 -165
l-27 -104 -112 -55 -113 -55 -64 57 c-309 271 -530 693 -590 1125 -20 142 -20
403 -1 541 17 117 60 289 100 395 135 357 399 682 726 895 375 243 827 340
1279 273z m-898 -1328 l-4 -135 79 -2 78 -1 -77 -10 -78 -10 0 -32 0 -32 93
-15 92 -15 -92 -2 -91 -1 -22 -62 c-13 -38 -25 -109 -30 -179 -10 -126 -23
-196 -38 -211 -7 -7 -7 3 -1 31 5 22 13 112 19 198 15 251 58 613 73 613 1 0
0 -61 -1 -135z m-204 -530 c39 -16 70 -30 67 -33 -11 -12 -216 76 -230 98 -4
6 15 0 41 -13 27 -13 82 -37 122 -52z m467 -137 c-19 -228 -28 -297 -49 -409
-14 -68 -42 -182 -64 -254 -58 -193 -58 -191 -25 -190 27 0 27 -1 40 -99 8
-55 12 -105 9 -111 -2 -6 -55 -29 -118 -50 l-114 -39 -48 33 c-53 37 -53 30
-13 169 l21 74 75 -4 76 -3 71 285 c40 157 84 357 98 445 14 88 29 175 31 193
10 58 16 33 10 -40z m1394 -8 c91 -57 114 -78 192 -172 l89 -107 -92 74 c-53
42 -134 95 -187 122 l-94 47 -16 -24 c-27 -43 -102 -119 -138 -141 -32 -20
-39 -21 -88 -9 -51 12 -54 12 -96 -17 -80 -54 -449 -258 -449 -249 0 2 53 42
118 88 64 47 162 126 217 176 l100 92 77 -7 76 -6 55 52 c31 29 71 75 89 102
18 26 35 47 38 46 3 -1 52 -31 109 -67z m-907 -1365 c40 -36 135 -116 212
-178 124 -100 136 -112 115 -118 -62 -18 -72 -12 -170 89 -52 53 -115 122
-140 152 -38 46 -57 59 -110 78 -97 34 -103 42 -37 42 57 0 59 -1 130 -65z
m-438 -10 c67 -21 101 -44 177 -122 77 -78 191 -214 185 -220 -2 -2 -25 1 -50
8 -51 13 -77 41 -183 199 -62 92 -74 103 -140 125 -29 9 -53 18 -53 21 0 7 12
5 64 -11z"/>
<path d="M2898 7011 c-25 -10 -61 -29 -78 -41 -40 -29 -87 -102 -101 -157 -10
-38 -14 -42 -57 -53 -59 -15 -116 -70 -132 -130 -37 -138 67 -260 223 -260 50
0 68 -10 101 -59 37 -52 116 -106 191 -127 78 -22 174 -14 285 24 111 38 145
56 264 141 105 76 125 82 211 61 22 -5 67 -7 100 -3 l60 7 -43 7 c-23 5 -69
20 -102 35 -48 21 -70 26 -114 22 -52 -4 -81 -18 -207 -101 l-25 -17 4 60 4
60 -41 0 c-37 0 -42 -2 -36 -20 11 -34 -14 -99 -54 -139 -105 -105 -311 -97
-411 17 -45 51 -48 58 -22 66 11 4 30 18 43 32 l24 27 -55 -7 c-92 -11 -194
-10 -233 3 -86 29 -117 132 -58 192 40 39 81 39 104 0 23 -39 74 -61 141 -61
106 0 176 54 176 134 0 34 -6 48 -33 74 -50 48 -90 38 -52 -12 34 -45 7 -112
-50 -130 -28 -8 -84 9 -112 36 -61 57 2 198 109 242 44 19 120 21 151 5 38
-20 67 -52 67 -73 0 -20 5 -21 78 -18 71 3 81 0 129 -28 88 -51 135 -152 91
-196 -14 -14 -19 -13 -53 10 -29 20 -50 26 -92 26 -105 0 -163 -51 -163 -143
0 -42 5 -54 34 -83 37 -37 93 -47 116 -19 17 21 5 45 -23 45 -54 0 -75 69 -33
109 49 46 131 24 164 -45 14 -31 20 -35 43 -30 15 3 48 20 73 37 36 26 59 34
106 37 53 4 68 0 136 -32 60 -28 88 -36 133 -36 32 0 61 3 64 6 6 6 -50 34
-208 102 -45 19 -78 26 -132 26 l-73 0 0 51 c0 117 -138 244 -265 245 -43 0
-54 4 -80 32 -16 17 -48 39 -70 49 -53 24 -155 24 -217 0z"/>
<path d="M1069 5290 c-24 -16 -75 -54 -113 -84 -47 -37 -86 -59 -127 -71 -32
-9 -59 -18 -59 -20 0 -5 76 -245 85 -267 5 -13 18 -18 49 -18 56 0 161 24 219
49 101 44 246 159 309 245 l29 40 -74 27 c-80 29 -109 45 -173 96 -52 41 -86
42 -145 3z"/>
<path d="M8333 7203 c-35 -7 -73 -49 -73 -80 0 -15 14 -48 30 -73 l30 -45
-160 -3 c-88 -1 -160 -5 -160 -8 0 -3 16 -24 35 -47 64 -75 66 -91 63 -603 -3
-455 -3 -459 -26 -509 -30 -66 -66 -102 -127 -131 -90 -43 -181 -23 -243 52
-37 45 -58 102 -72 199 -14 98 -13 869 1 920 6 22 28 56 50 78 21 22 39 41 39
43 0 2 -110 4 -245 4 -135 0 -245 -3 -245 -6 0 -3 14 -17 30 -31 17 -14 41
-44 53 -67 22 -40 22 -51 28 -506 5 -404 8 -474 24 -530 59 -214 192 -322 416
-337 232 -16 410 108 485 337 16 49 18 106 22 506 l3 451 75 73 c84 82 115
133 116 191 1 78 -72 138 -149 122z"/>
<path d="M4460 6994 c0 -2 22 -24 49 -49 51 -48 94 -121 129 -220 22 -62 102
-328 263 -877 l93 -318 107 0 107 0 11 33 c5 17 53 192 106 387 241 889 247
905 334 1002 l44 49 -187 -1 c-102 -1 -186 -4 -186 -7 0 -3 8 -17 19 -31 31
-46 44 -100 37 -161 -12 -95 -222 -928 -229 -906 -34 107 -220 875 -224 926
-5 56 -2 74 17 113 12 25 26 46 31 46 5 0 9 5 9 10 0 7 -87 10 -265 10 -146
-1 -265 -3 -265 -6z"/>
<path d="M6062 6980 c-168 -44 -289 -142 -372 -301 -63 -121 -81 -193 -87
-349 -13 -329 80 -568 274 -707 171 -122 395 -136 601 -37 158 76 272 230 324
439 31 127 32 363 1 480 -60 227 -146 350 -300 433 -119 63 -296 80 -441 42z
m213 -160 c104 -45 191 -176 242 -367 24 -88 27 -116 27 -283 1 -165 -1 -193
-22 -257 -43 -139 -141 -223 -259 -223 -171 0 -318 190 -368 477 -30 174 -12
406 42 525 29 65 96 134 140 144 15 3 33 8 38 10 22 8 116 -7 160 -26z"/>
<path d="M8470 6991 c0 -5 7 -14 16 -22 8 -7 23 -26 32 -43 15 -27 18 -87 23
-521 6 -524 7 -537 60 -650 28 -60 98 -137 154 -170 25 -14 79 -35 122 -45
174 -45 325 -11 448 102 62 56 94 106 127 194 21 57 22 77 28 534 4 338 9 483
18 503 6 15 33 50 58 77 l47 50 -207 0 c-113 0 -206 -3 -206 -6 0 -3 11 -15
24 -25 14 -11 37 -45 53 -77 l28 -57 0 -475 c0 -475 0 -475 -23 -525 -30 -66
-66 -102 -127 -131 -65 -31 -118 -30 -182 1 -133 67 -156 186 -151 785 3 365
4 376 25 417 12 22 34 50 48 61 14 11 25 23 25 26 0 3 -99 6 -220 6 -121 0
-220 -4 -220 -9z"/>
<path d="M7427 5433 c-24 -21 -85 -72 -134 -114 -93 -78 -243 -182 -289 -199
-45 -17 -23 -20 81 -9 132 13 225 39 351 99 141 66 164 83 164 123 0 42 -31
92 -72 117 -44 27 -49 26 -101 -17z"/>
<path d="M5520 5079 c-250 -42 -452 -172 -584 -377 -92 -142 -136 -297 -136
-481 0 -400 210 -687 564 -771 234 -56 481 -19 667 102 74 47 188 158 213 206
16 31 16 34 -1 62 l-17 30 -41 -39 c-81 -79 -192 -137 -312 -165 -95 -21 -163
-20 -258 4 -285 73 -459 332 -442 660 7 128 34 237 86 344 56 114 115 177 208
223 70 35 85 38 175 41 204 8 297 -62 434 -320 29 -57 54 -96 54 -88 0 8 12
118 26 244 22 192 24 230 13 237 -28 17 -196 69 -272 84 -86 16 -288 18 -377
4z"/>
<path d="M8686 5074 c-275 -54 -491 -223 -611 -475 -163 -344 -80 -785 190
-1009 157 -129 423 -194 642 -156 183 32 321 102 448 230 101 101 113 124 90
160 l-17 26 -57 -51 c-106 -95 -292 -168 -428 -169 -134 0 -288 65 -388 164
-76 76 -147 212 -170 324 -57 279 53 619 239 737 85 54 143 68 259 63 85 -3
110 -8 152 -30 82 -43 158 -135 245 -299 l46 -89 28 242 c22 196 25 243 14
249 -27 17 -235 79 -298 89 -90 14 -301 11 -384 -6z"/>
<path d="M6780 5038 c0 -5 4 -8 10 -8 5 0 25 -14 44 -30 43 -38 70 -106 63
-158 -5 -39 -168 -512 -319 -927 -112 -307 -149 -376 -231 -436 l-40 -29 248
0 247 0 -34 38 c-48 53 -72 120 -65 176 4 24 23 96 43 160 l38 116 273 0 272
0 38 -117 c56 -176 51 -278 -19 -342 -17 -16 -18 -22 -7 -26 8 -3 153 -4 323
-3 l309 3 -39 25 c-82 52 -141 174 -312 635 -47 127 -125 347 -173 489 -105
307 -111 346 -55 402 l33 33 -323 3 c-178 2 -324 0 -324 -4z m385 -618 c54
-162 98 -298 99 -303 0 -4 -93 -7 -209 -7 -115 0 -209 3 -208 7 1 5 47 140
102 301 56 161 101 298 101 304 0 35 27 -35 115 -302z"/>
</g>
</svg>
